<?xml version="1.0" standalone="no"?>
<!DOCTYPE svg PUBLIC "-//W3C//DTD SVG 20010904//EN"
 "http://www.w3.org/TR/2001/REC-SVG-20010904/DTD/svg10.dtd">
<svg version="1.0" xmlns="http://www.w3.org/2000/svg"
 width="230.000000pt" height="230.000000pt" viewBox="0 0 230.000000 230.000000"
 preserveAspectRatio="xMidYMid meet">
<metadata>
Created by potrace 1.10, written by Peter Selinger 2001-2011
</metadata>
<g transform="translate(0.000000,230.000000) scale(0.050000,-0.050000)"
fill="#000000" stroke="none">
<path d="M3210 4524 c-252 -75 -398 -160 -830 -481 -346 -258 -1304 -1026
-1292 -1037 5 -6 93 35 196 89 178 96 695 360 1506 772 622 316 933 342 1178
100 213 -211 221 -396 49 -1099 l-63 -261 158 -183 158 -183 24 79 c391 1310
281 1923 -391 2182 -159 61 -522 73 -693 22z m310 -106 c0 -16 38 -20 117 -13
100 8 117 5 115 -23 -1 -19 16 -35 43 -38 25 -4 45 3 45 15 0 36 35 23 45 -18
7 -24 25 -36 48 -32 54 8 72 -8 46 -41 -15 -17 -16 -28 -4 -28 12 0 26 14 33
31 10 26 26 20 91 -35 71 -58 113 -118 62 -87 -10 7 -15 -6 -11 -28 10 -52
-68 -80 -94 -33 -10 17 -34 32 -55 32 -20 0 -47 14 -61 30 -17 21 -18 30 -2
30 12 0 22 9 22 20 0 24 -44 18 -65 -10 -8 -11 -15 5 -15 36 0 40 7 52 25 41
17 -10 16 -4 -2 19 -42 52 -61 41 -54 -31 3 -36 2 -45 -3 -20 -8 43 -123 55
-161 16 -7 -6 -33 3 -58 19 -28 19 -47 22 -47 9 0 -12 -9 -16 -20 -9 -12 7
-15 21 -9 32 6 10 -12 7 -42 -6 -44 -20 -56 -19 -70 6 -10 17 -47 30 -93 32
-42 1 -56 -3 -30 -8 28 -5 43 -21 40 -42 -4 -22 13 -36 54 -44 l60 -12 -64
-10 c-35 -6 -60 -4 -55 4 12 19 -6 30 -81 44 -33 7 -49 8 -35 2 38 -17 30 -49
-8 -34 -25 10 -31 5 -22 -18 9 -23 2 -29 -24 -22 -19 5 -50 -6 -68 -24 -25
-25 -49 -29 -98 -18 -85 21 -115 21 -115 3 0 -8 0 -24 0 -35 0 -11 25 -21 55
-23 l55 -3 -55 -8 c-31 -5 -51 -16 -46 -25 15 -23 -135 -17 -161 7 -23 22 -14
92 11 92 25 0 82 -73 68 -87 -8 -7 1 -13 18 -13 43 0 57 25 34 61 -10 16 -19
20 -19 9 0 -11 -9 -7 -19 9 -22 35 25 88 97 110 27 9 41 26 34 42 -5 15 0 34
12 41 12 8 17 5 10 -5 -7 -12 16 -19 55 -18 37 0 64 7 59 14 -13 21 47 60 86
55 45 -6 186 22 226 44 43 24 100 22 100 -4z m714 -383 c-10 -75 -8 -79 37
-70 32 6 43 2 34 -13 -8 -12 -11 -39 -8 -59 4 -23 -2 -32 -15 -24 -13 8 -22
-2 -23 -23 -1 -49 -59 25 -59 75 0 19 -20 40 -45 47 -27 7 -37 18 -24 27 12 8
33 44 47 80 35 85 69 61 56 -40z m-1515 -8 l45 -52 -54 13 c-57 15 -164 -69
-139 -109 6 -11 1 -19 -11 -19 -12 0 -33 27 -47 60 -14 34 -33 54 -43 45 -9
-8 -10 -5 -3 8 7 13 31 19 53 13 33 -9 38 -4 27 25 -10 24 -6 31 10 21 13 -8
37 0 55 17 42 42 53 40 107 -22z m-247 -157 c5 -35 -14 -49 -80 -61 l-47 -9
52 58 c55 60 68 62 75 12z m-115 -112 c-15 -9 -43 -12 -62 -6 -21 6 -35 0 -35
-15 0 -20 -5 -20 -25 0 -35 35 8 59 87 47 44 -6 54 -14 35 -26z m1984 -13 c1
-8 6 -34 10 -58 6 -29 -4 -46 -31 -53 -33 -8 -38 0 -36 58 2 58 52 104 57 53z
m39 -230 c0 -19 -9 -35 -20 -35 -11 0 -20 14 -20 30 0 17 -10 28 -22 25 -13
-3 -27 6 -32 20 -6 16 2 21 22 13 20 -8 32 -2 32 15 1 42 39 -25 40 -68z m-66
-279 c-6 -41 -4 -77 3 -82 7 -4 1 -4 -15 0 -21 5 -25 -11 -17 -74 9 -67 6 -80
-24 -80 -25 0 -35 -17 -37 -60 -2 -81 -23 -143 -44 -130 -26 16 -7 118 39 208
30 59 41 119 42 226 0 136 2 143 31 106 20 -26 28 -65 22 -114z m-54 -546 c0
-78 -31 -95 -44 -24 -11 54 0 94 26 94 10 0 18 -31 18 -70z"/>
<path d="M4041 4216 c-1 -59 32 -91 62 -61 12 12 4 36 -22 67 l-40 48 0 -54z"/>
<path d="M820 4510 c-796 -162 -1023 -1022 -483 -1828 220 -327 1209 -1582
1248 -1582 13 0 13 9 0 25 -25 33 -299 564 -712 1386 -455 903 -503 1180 -248
1445 215 223 387 233 1109 60 l264 -64 96 90 c53 49 134 120 181 157 104 83
124 69 -207 150 -741 183 -984 214 -1248 161z m394 -133 c34 -17 51 -17 72 0
49 40 154 6 154 -49 0 -35 11 -48 40 -48 44 0 51 21 20 52 -13 13 5 18 55 13
114 -12 133 -21 107 -52 -18 -22 -11 -27 33 -25 37 1 55 -8 55 -28 0 -54 -125
-43 -135 12 -6 31 2 49 23 55 23 6 21 9 -9 11 -22 1 -61 -12 -86 -30 -25 -18
-63 -27 -84 -22 -36 10 -51 -16 -41 -72 2 -10 -6 -11 -18 -4 -11 7 -17 19 -12
26 8 13 -46 20 -213 27 -90 4 -81 24 12 28 36 1 77 9 90 17 13 8 51 9 83 2 48
-10 60 -6 60 19 0 27 -15 31 -85 21 -47 -7 -148 -17 -225 -22 -227 -13 -238
-16 -276 -62 -24 -30 -62 -46 -120 -50 -71 -5 -85 -13 -91 -53 -4 -29 -16 -42
-33 -36 -15 6 -31 0 -36 -13 -6 -16 -21 -10 -43 16 -32 39 -32 38 -8 -10 34
-68 38 -102 16 -139 -14 -24 -18 -18 -18 27 l-1 57 -38 -48 c-21 -27 -45 -82
-53 -123 -7 -41 -21 -74 -31 -74 -10 0 -18 -14 -18 -31 0 -17 -8 -27 -17 -21
-20 12 -66 -127 -51 -152 21 -33 48 8 36 55 -7 28 -4 49 8 49 26 0 47 -95 36
-154 -12 -58 22 -294 43 -301 9 -3 15 -59 14 -125 -2 -84 5 -120 22 -120 14 0
30 -14 37 -31 6 -17 22 -25 34 -17 14 8 19 3 13 -14 -5 -15 -20 -26 -33 -23
-31 7 -28 -12 8 -48 21 -21 30 -22 30 -5 0 33 26 6 35 -38 9 -41 21 -108 23
-130 1 -9 11 -11 22 -4 12 7 20 6 18 -4 -8 -49 6 -86 33 -86 17 0 26 -9 19
-20 -7 -12 -21 -15 -31 -9 -11 6 -19 -9 -19 -35 0 -39 -5 -36 -38 24 -21 39
-49 68 -62 65 -13 -4 -17 3 -10 15 7 11 -2 26 -19 32 -40 16 -40 66 -1 81 44
17 36 47 -12 47 -29 0 -39 -9 -31 -30 14 -37 -2 -37 -67 0 -27 16 -39 29 -25
29 14 1 25 11 25 23 0 12 -11 18 -25 13 -16 -7 -26 12 -29 53 -2 34 -5 94 -8
132 -2 45 -7 55 -12 27 -5 -24 -22 -49 -38 -55 -17 -6 -25 -4 -19 6 6 10 -11
66 -38 125 -73 162 -106 517 -56 608 12 23 20 65 17 94 -4 37 5 55 31 62 22 5
37 27 37 52 0 28 -8 38 -23 29 -15 -9 -18 -5 -8 10 11 18 21 19 43 0 24 -19
26 -17 15 12 -10 28 -7 33 15 20 22 -12 23 -10 5 10 -37 39 -11 87 26 49 40
-39 79 -38 46 2 -18 22 -19 37 -4 52 12 12 17 37 10 54 -9 27 -6 28 16 8 39
-36 69 -31 38 6 -23 28 -19 30 28 18 41 -10 53 -6 53 19 0 18 14 32 30 32 17
0 30 9 30 19 0 28 131 59 264 63 63 2 118 14 123 26 12 30 193 37 247 9z m716
-177 c-7 -11 -3 -20 9 -20 11 0 21 -16 21 -35 -1 -30 -3 -31 -20 -5 -19 30
-31 6 -22 -46 2 -10 -6 -11 -18 -4 -11 7 -15 21 -9 31 6 11 -11 28 -38 38 -85
32 -82 61 7 61 50 0 77 -8 70 -20z m-1210 -1700 c-13 -46 -12 -75 3 -94 26
-31 6 -64 -21 -35 -37 41 -41 122 -7 164 44 54 49 48 25 -35z"/>
<path d="M2980 3471 c0 -6 66 -138 147 -295 291 -565 803 -1568 856 -1676 213
-440 79 -940 -279 -1039 -161 -45 -564 7 -950 121 -75 22 -149 38 -164 34 -55
-12 -371 -304 -345 -318 63 -34 906 -217 1085 -236 771 -78 1295 420 1192
1135 -58 410 -247 703 -1269 1970 -96 119 -189 239 -206 265 -28 42 -67 65
-67 39z m884 -1239 c20 12 19 7 -2 -19 -24 -30 -24 -32 5 -21 25 9 30 4 21
-20 -8 -21 -1 -32 20 -32 18 0 32 -9 32 -20 0 -11 -10 -20 -21 -20 -12 0 -16
-9 -9 -20 7 -12 21 -15 31 -9 11 6 19 -7 19 -30 0 -22 9 -41 20 -41 11 0 20
-13 20 -29 0 -15 16 -32 35 -36 29 -7 26 -13 -15 -31 -34 -15 -39 -22 -16 -23
18 0 49 19 67 44 20 26 29 31 23 12 -6 -18 -5 -39 2 -47 8 -7 14 -24 14 -37 1
-13 14 -22 30 -21 17 1 31 -17 33 -42 1 -23 25 -68 53 -98 28 -30 48 -71 44
-92 -4 -20 7 -42 24 -49 25 -9 26 -17 5 -42 -20 -25 -19 -28 8 -17 25 9 33 1
31 -35 0 -26 -6 -36 -11 -22 -6 14 -19 20 -29 14 -35 -22 -18 -49 31 -49 52 0
105 -147 68 -189 -27 -31 -20 -56 13 -44 18 7 30 0 30 -18 0 -16 -11 -29 -25
-29 -17 -1 -15 -7 5 -20 22 -14 23 -19 4 -20 -15 0 -21 -9 -14 -20 7 -11 4
-20 -6 -20 -9 0 -15 -43 -11 -95 5 -73 2 -86 -14 -55 -16 33 -18 30 -13 -24 4
-35 -1 -59 -10 -54 -9 6 -16 -21 -16 -59 0 -40 -15 -85 -35 -105 -25 -25 -28
-37 -10 -43 40 -13 29 -45 -16 -45 -36 0 -40 9 -30 73 10 60 7 69 -16 49 -22
-18 -33 -140 -15 -177 7 -15 -10 -34 -25 -29 -10 3 -12 -10 -5 -30 10 -31 7
-30 -20 4 -23 28 -35 32 -42 15 -5 -14 -21 -25 -35 -25 -15 0 -25 -16 -24 -35
2 -23 -35 -55 -109 -95 -64 -34 -108 -71 -103 -85 11 -33 -28 -33 -43 0 -10
20 -14 20 -24 0 -13 -29 -68 -34 -68 -6 0 25 -188 8 -196 -18 -10 -28 -184
-27 -184 0 0 12 11 16 25 8 14 -7 3 5 -24 27 -38 32 -54 35 -70 16 -16 -19
-49 -20 -129 -7 -75 13 -99 24 -80 37 18 11 -8 17 -77 18 -58 0 -105 -9 -105
-19 0 -11 -15 -14 -33 -7 -30 12 -30 14 0 36 63 46 39 76 -49 62 -62 -10 -80
-7 -73 12 12 38 134 45 162 10 20 -25 114 -47 258 -60 32 -2 43 -20 38 -57 -1
-7 16 -8 38 -3 21 6 39 23 39 38 0 39 32 35 74 -10 48 -51 163 -68 200 -31 19
19 54 25 106 19 59 -8 84 -2 104 25 30 40 96 52 96 18 0 -13 9 -9 20 7 10 17
26 30 34 30 44 1 104 78 81 106 -18 21 -17 26 6 22 70 -15 139 22 139 74 0 31
-8 45 -22 37 -13 -8 -11 5 4 34 15 26 24 61 21 77 -4 20 3 17 23 -9 38 -51 48
-21 64 197 16 214 -4 365 -56 414 -30 27 -34 38 -13 38 24 1 24 4 -1 20 -27
17 -27 19 0 20 26 1 26 3 1 19 -23 15 -24 28 -5 71 37 81 27 87 -18 10 -37
-64 -39 -52 -5 33 9 21 6 29 -8 20 -13 -8 -17 2 -11 27 6 22 1 40 -12 40 -12
0 -23 -16 -24 -35 -2 -39 -33 43 -36 95 -1 27 1 27 18 0 17 -26 19 -26 20 3 0
18 -18 37 -40 43 -22 6 -40 2 -40 -9 0 -11 -9 -13 -21 -6 -14 8 -10 30 12 63
17 27 27 55 21 61 -7 6 -12 1 -12 -12 0 -46 -40 -22 -53 32 -7 30 -20 60 -29
65 -8 6 -19 33 -23 60 -5 28 -18 73 -30 100 -12 28 -27 66 -33 86 -7 22 -22
31 -37 22 -19 -11 -20 -8 -2 12 13 13 19 40 14 57 -8 26 -4 26 20 -4 19 -23
40 -31 57 -21z"/>
<path d="M4111 1748 c-7 -29 -8 -58 -2 -64 6 -6 11 2 11 18 1 23 4 23 20 -2
15 -23 19 -18 20 24 0 72 -33 88 -49 24z"/>
<path d="M1469 2479 c-4 -6 -8 -114 -10 -240 l-4 -229 68 0 c63 0 67 4 62 65
-5 64 -4 65 80 66 168 1 249 152 147 273 -50 59 -316 109 -343 65z m239 -111
c76 -29 20 -128 -72 -128 -51 0 -56 7 -56 70 0 73 41 91 128 58z"/>
<path d="M1869 2478 c-26 -42 20 -98 81 -98 l65 0 -2 -185 -3 -185 60 0 60 0
0 180 0 180 76 6 c69 6 76 12 70 58 -6 52 -7 52 -203 54 -108 1 -200 -3 -204
-10z"/>
<path d="M2407 2470 c-155 -65 -117 -214 68 -267 65 -19 85 -34 85 -66 0 -52
-120 -41 -183 15 -41 38 -41 38 -75 -27 -32 -62 -18 -77 98 -105 300 -72 408
186 117 279 -106 33 -117 81 -20 81 41 0 85 -10 98 -23 30 -30 85 12 85 65 0
26 -20 39 -75 48 -41 7 -89 15 -107 18 -18 4 -59 -4 -91 -18z"/>
<path d="M2803 2423 c-215 -201 40 -537 292 -383 73 44 79 63 34 100 -23 20
-42 21 -81 3 -105 -48 -208 4 -208 106 0 99 142 171 200 101 33 -39 60 -38 92
5 89 117 -210 179 -329 68z"/>
<path d="M290 2316 c-27 -74 -192 -793 -222 -965 -151 -893 383 -1462 1227
-1307 300 55 675 296 1492 956 156 127 380 306 498 398 118 93 211 173 206
177 -4 5 -191 -86 -414 -201 -500 -257 -1419 -727 -1526 -780 -473 -233 -920
-150 -1074 199 -73 164 -43 481 93 990 l49 183 -55 65 c-221 263 -265 309
-274 285z m175 -401 c8 -19 5 -35 -6 -35 -10 0 -19 14 -19 31 0 21 -16 31 -45
28 -72 -6 -77 -1 -41 40 37 44 80 19 111 -64z m-49 -81 c26 -31 22 -59 -24
-164 -19 -44 -32 -113 -28 -154 5 -50 0 -68 -14 -56 -34 28 -86 -12 -55 -43
35 -35 35 -344 0 -331 -14 5 -23 19 -20 31 3 13 -4 23 -15 23 -33 0 -23 -56
16 -84 37 -27 45 -88 17 -132 -25 -40 3 -102 29 -63 13 20 15 11 6 -31 -8 -33
-20 -64 -26 -70 -21 -18 -23 -60 -2 -60 11 0 20 -13 20 -30 0 -16 7 -30 16
-30 9 0 15 35 14 78 -1 43 5 95 13 115 13 33 14 32 16 -7 0 -24 11 -50 22 -57
12 -7 17 -26 11 -41 -6 -15 -2 -28 8 -28 11 0 16 -26 12 -58 -6 -55 -3 -58 42
-40 27 10 43 10 38 0 -6 -9 10 -40 36 -68 42 -45 44 -53 15 -61 -18 -5 0 -8
41 -7 41 1 82 -6 90 -15 9 -10 0 -12 -19 -5 -24 9 -35 3 -35 -18 0 -17 10 -24
22 -17 12 8 29 3 38 -11 8 -14 39 -25 67 -25 29 0 47 -9 40 -20 -7 -12 5 -14
30 -6 24 8 74 2 112 -11 53 -19 81 -20 115 -3 53 26 210 55 262 47 80 -11 238
59 210 94 -17 20 -17 27 -3 18 13 -8 66 8 118 35 52 28 101 46 111 40 9 -6 32
7 51 29 19 22 42 35 51 30 9 -6 16 1 17 16 0 19 7 17 25 -6 13 -17 45 -36 70
-43 36 -9 42 -6 25 13 -11 14 -15 32 -7 39 7 7 2 13 -11 13 -12 0 -23 9 -23
20 0 11 17 20 39 20 21 0 44 9 51 20 7 12 21 15 31 9 11 -6 19 -2 19 10 0 11
9 21 20 21 32 0 23 -114 -11 -149 -18 -17 -25 -31 -16 -31 9 0 -19 -19 -63
-41 -44 -23 -96 -60 -115 -83 -25 -28 -43 -35 -60 -21 -51 39 -154 65 -142 35
6 -15 34 -30 62 -34 29 -3 56 -19 62 -36 8 -24 4 -25 -19 -6 -24 19 -37 12
-69 -36 -45 -67 -96 -69 -105 -3 -4 25 -15 45 -25 45 -10 0 -10 -21 1 -50 14
-36 12 -50 -5 -51 -14 -1 -7 -10 15 -19 22 -9 28 -18 14 -19 -15 0 -20 -12
-12 -26 11 -20 8 -20 -13 0 -33 30 -66 33 -49 4 9 -13 -5 -16 -39 -8 -44 12
-49 8 -37 -24 12 -33 10 -34 -20 -10 -29 24 -34 24 -36 0 -1 -19 -4 -20 -11
-3 -7 18 -22 13 -52 -15 -24 -21 -58 -39 -76 -39 -19 0 -45 -13 -59 -30 -13
-16 -32 -25 -41 -19 -9 5 -22 1 -29 -11 -7 -11 -21 -20 -32 -20 -11 0 -14 11
-5 25 11 19 7 19 -17 -1 -25 -20 -60 -21 -159 -5 -70 11 -136 21 -147 21 -11
0 -6 9 10 20 40 26 1 53 -103 70 -49 9 -76 26 -83 51 -6 22 -21 39 -34 39 -13
0 -19 -14 -13 -30 14 -36 15 -36 -64 -8 l-63 22 45 36 45 37 -55 13 c-30 8
-55 21 -55 29 0 8 -23 26 -51 41 -31 17 -46 39 -39 57 9 24 6 24 -21 2 -17
-14 -29 -17 -26 -7 10 32 -44 110 -67 95 -13 -8 -17 -4 -8 9 8 13 3 44 -11 69
-14 25 -28 98 -31 164 -3 65 -15 128 -26 139 -26 26 -26 58 0 42 27 -16 25 22
-2 74 -16 29 -16 45 0 54 12 8 17 46 12 88 -9 69 16 104 36 49 5 -14 16 -18
24 -10 9 8 5 27 -9 44 -19 23 -19 45 -1 101 13 39 18 85 12 102 -7 18 -3 25 9
17 37 -22 86 8 62 38 -37 44 -44 205 -10 246 27 35 28 34 15 -13 -21 -75 -20
-110 2 -114 11 -2 18 20 16 50 -3 37 1 45 12 27 10 -16 29 -24 42 -20 20 7 19
15 -3 38 -24 25 -30 49 -19 89 4 19 37 10 58 -16z m1886 -1041 c63 13 68 -37
5 -61 -16 -7 -24 -3 -17 8 12 20 -26 28 -100 21 -40 -4 -40 -4 0 26 22 17 43
22 46 12 4 -9 33 -12 66 -6z m-39 -88 c24 -31 23 -32 -6 -9 -27 21 -34 20 -45
-7 -14 -37 -52 -20 -52 22 0 40 69 36 103 -6z"/>
</g>
</svg>
