<?xml version="1.0" standalone="no"?>
<!DOCTYPE svg PUBLIC "-//W3C//DTD SVG 20010904//EN"
 "http://www.w3.org/TR/2001/REC-SVG-20010904/DTD/svg10.dtd">
<svg version="1.0" xmlns="http://www.w3.org/2000/svg"
 width="231.000000pt" height="231.000000pt" viewBox="0 0 231.000000 231.000000"
 preserveAspectRatio="xMidYMid meet">
<metadata>
Created by potrace 1.14, written by Peter Selinger 2001-2017
</metadata>
<g transform="translate(0.000000,231.000000) scale(0.100000,-0.100000)"
fill="#000000" stroke="none">
<path d="M1725 2293 c-77 -9 -177 -40 -253 -79 -68 -35 -238 -148 -302 -201
-18 -15 -172 -134 -220 -171 -19 -14 -43 -33 -52 -42 -9 -8 -84 -69 -167 -135
-82 -66 -152 -125 -155 -131 -4 -10 591 285 752 372 34 19 62 32 62 28 0 -3
12 3 28 14 26 19 194 104 200 102 1 -1 27 4 57 10 92 19 179 14 247 -14 43
-18 114 -94 138 -148 35 -78 19 -228 -50 -489 -25 -95 -25 -103 3 -131 12 -13
46 -52 76 -87 59 -67 62 -67 75 2 2 12 16 69 31 127 15 58 29 114 31 124 2 11
13 65 24 120 70 337 -16 571 -248 678 -85 39 -196 59 -277 51z"/>
<path d="M479 2276 c-2 -2 -24 -6 -49 -9 -54 -7 -99 -20 -131 -38 -13 -7 -30
-14 -36 -15 -17 -3 -91 -62 -125 -99 -36 -40 -85 -137 -103 -205 -17 -64 -20
-210 -4 -260 5 -19 12 -46 15 -60 6 -32 94 -210 104 -210 4 0 10 -8 12 -17 8
-29 323 -448 382 -509 6 -6 38 -45 71 -87 33 -43 63 -77 67 -77 5 0 8 -7 8
-16 0 -8 4 -12 10 -9 5 3 10 1 10 -4 0 -6 9 -21 20 -33 10 -13 26 -32 35 -43
14 -19 14 -18 5 10 -6 16 -119 243 -250 505 -132 261 -247 500 -257 530 -12
38 -18 85 -18 150 1 80 4 102 25 143 28 55 71 97 133 128 60 32 154 32 307 2
143 -27 125 -23 213 -48 81 -22 81 -22 186 74 l74 68 -229 56 c-126 31 -256
59 -289 62 -85 9 -182 14 -186 11z"/>
<path d="M1510 1727 c0 -10 460 -923 482 -957 28 -42 59 -175 60 -253 0 -87
-22 -149 -73 -204 -66 -71 -102 -86 -209 -87 -99 -1 -121 2 -300 44 -74 18
-146 34 -160 37 -20 3 -42 -12 -110 -75 l-84 -79 54 -16 c54 -16 132 -34 180
-43 14 -3 52 -12 85 -20 33 -9 71 -18 85 -20 14 -2 36 -6 50 -9 99 -21 251
-25 324 -8 241 55 389 254 382 513 -2 47 -8 95 -14 106 -6 12 -9 23 -7 26 5 5
-28 96 -52 142 -35 68 -181 279 -277 401 -65 81 -83 104 -106 135 -14 18 -29
38 -35 44 -5 6 -37 45 -70 86 -33 41 -67 82 -75 91 -8 9 -29 34 -47 56 -67 81
-83 98 -83 90z"/>
<path d="M743 1243 c-10 -3 -13 -37 -13 -119 l0 -115 33 3 c25 2 32 8 33 26 2
30 7 34 51 38 73 6 112 97 61 144 -12 11 -27 20 -32 21 -48 5 -123 6 -133 2z
m108 -53 c28 -16 24 -49 -8 -61 -29 -11 -43 -3 -47 27 -3 19 12 43 27 44 5 0
17 -5 28 -10z"/>
<path d="M942 1220 c2 -17 9 -25 23 -26 11 -1 26 -2 33 -3 8 -1 12 -26 12 -91
l0 -90 30 0 30 0 0 89 c0 93 3 100 48 96 18 -1 22 3 22 26 l0 28 -100 -2 -101
-2 3 -25z"/>
<path d="M1198 1235 c-60 -33 -44 -104 30 -127 53 -17 71 -48 27 -48 -14 0
-39 7 -55 15 -27 14 -30 14 -40 -4 -5 -11 -10 -22 -10 -25 0 -9 60 -37 68 -32
4 3 14 1 21 -4 8 -4 28 -3 45 2 91 31 89 102 -5 138 -24 10 -44 24 -44 31 0
13 6 14 74 7 16 -2 26 4 32 19 7 20 4 24 -29 33 -50 13 -82 12 -114 -5z"/>
<path d="M1430 1232 c-19 -11 -42 -32 -50 -48 -8 -16 -19 -32 -25 -36 -6 -5
-6 -8 1 -8 6 0 10 -13 9 -30 -1 -16 2 -30 6 -30 4 0 10 -8 13 -18 15 -46 109
-67 166 -37 34 17 37 27 15 45 -12 10 -22 10 -39 2 -48 -21 -96 8 -96 58 0 48
51 77 96 54 26 -14 30 -13 41 2 17 24 17 27 -7 42 -37 23 -92 24 -130 4z"/>
<path d="M141 1138 c-11 -35 -86 -341 -95 -393 -41 -218 -33 -356 30 -481 48
-97 177 -209 265 -230 147 -36 256 -37 343 -4 15 5 26 8 26 5 0 -12 148 66
230 121 130 88 192 132 199 141 3 4 51 42 106 83 55 41 102 77 105 80 3 3 30
25 60 50 30 25 57 47 60 50 3 3 28 23 55 45 28 21 52 42 55 46 3 3 24 19 47
36 23 17 39 33 36 37 -3 3 -1 6 5 6 6 0 23 11 38 25 l28 26 -40 -18 c-21 -10
-138 -69 -259 -130 -121 -61 -272 -137 -335 -169 -63 -32 -118 -63 -122 -69
-4 -5 -8 -7 -8 -2 0 4 -24 -6 -52 -22 -132 -72 -191 -101 -207 -101 -10 0 -21
-3 -25 -7 -15 -15 -99 -30 -176 -31 -64 0 -89 4 -127 23 -74 36 -133 100 -155
168 -20 65 0 255 46 427 35 129 37 141 24 154 -7 7 -35 39 -63 71 -27 32 -57
66 -67 77 -16 18 -16 18 -27 -14z"/>
</g>
</svg>
